<?xml version="1.0" encoding="iso-8859-1"?>
<!-- Uploaded to: SVG Repo, www.svgrepo.com, Generator: SVG Repo Mixer Tools -->
<svg fill="#ffffff" height="18px" width="18px" version="1.1" id="Layer_1" xmlns="http://www.w3.org/2000/svg" xmlns:xlink="http://www.w3.org/1999/xlink"
	 viewBox="0 0 512 512" xml:space="preserve">
<g>
	<g>
		<path d="M496.345,129.597H480.69h-97.415V32.714V17.059V1.404H0.605v343.365H512V129.597H496.345z M447.637,284.236h-95.662
			v-31.31h95.662V284.236z M447.637,223.297H128.976v66.158h-31.31v-66.158H61.138v-31.31h36.528v-71.261H61.138v-31.31h36.528
			V60.893h31.31v28.523h219.169v31.31H128.976v71.261h318.661V223.297z"/>
	</g>
</g>
<g>
	<g>
		<polygon points="414.585,10.546 414.585,32.63 414.585,54.704 414.585,98.287 458.398,98.287 480.596,98.287 502.795,98.287 		"/>
	</g>
</g>
<g>
	<g>
		<polygon points="0,439.69 121.441,508.06 121.441,490.099 121.441,472.127 121.441,407.263 121.441,389.291 121.441,371.33 		"/>
	</g>
</g>
<g>
	<g>
		<polygon points="152.75,368.794 152.75,384.449 152.75,400.104 152.75,479.286 152.75,494.941 152.75,510.596 419.114,510.596 
			419.114,494.941 419.114,479.286 419.114,400.104 419.114,384.449 419.114,368.794 		"/>
	</g>
</g>
<g>
	<g>
		<polygon points="450.424,368.794 450.424,384.449 450.424,400.104 450.424,479.286 450.424,494.941 450.424,510.596 512,510.596 
			512,368.794 		"/>
	</g>
</g>
</svg>